PathFileType	4	(X/Y/Z)	s03c0203.trc
DataRate	CameraRate	NumFrames	NumMarkers	Units	OrigDataRate	OrigDataStartFrame	OrigNumFrames
200	200	6	50	mm	200	1000	2000
Frame#	Time	racr			lacr			c7			jug			rlel			rdr			llel			ldr			s2			lic			ric			lasi			rasi			rpsi			lpsi			rgt			lgt			rth1			rth2			rth3			rth4			rlfc			rmfc			rsh1			rsh2			rsh3			rsh4			rlmal			rcal			rtoe			rmt5			rmt1			lth1			lth2			lth4			lth3			llfc			lmfc			lsh1			lsh2			lsh3			lsh4			llmal			lcal			ltoe			lmt1			lmt5			SBIKE			LBIKE			RBIKE			
		X1	Y1	Z1	X2	Y2	Z2	X3	Y3	Z3	X4	Y4	Z4	X5	Y5	Z5	X6	Y6	Z6	X7	Y7	Z7	X8	Y8	Z8	X9	Y9	Z9	X10	Y10	Z10	X11	Y11	Z11	X12	Y12	Z12	X13	Y13	Z13	X14	Y14	Z14	X15	Y15	Z15	X16	Y16	Z16	X17	Y17	Z17	X18	Y18	Z18	X19	Y19	Z19	X20	Y20	Z20	X21	Y21	Z21	X22	Y22	Z22	X23	Y23	Z23	X24	Y24	Z24	X25	Y25	Z25	X26	Y26	Z26	X27	Y27	Z27	X28	Y28	Z28	X29	Y29	Z29	X30	Y30	Z30	X31	Y31	Z31	X32	Y32	Z32	X33	Y33	Z33	X34	Y34	Z34	X35	Y35	Z35	X36	Y36	Z36	X37	Y37	Z37	X38	Y38	Z38	X39	Y39	Z39	X40	Y40	Z40	X41	Y41	Z41	X42	Y42	Z42	X43	Y43	Z43	X44	Y44	Z44	X45	Y45	Z45	X46	Y46	Z46	X47	Y47	Z47	X48	Y48	Z48	X49	Y49	Z49	X50	Y50	Z50	
1000	5.0000	447.297609	1384.605974	-40.409574	459.068920	1432.122093	-362.486739	389.244613	1497.486174	-183.345085	400.309263	1325.273171	-206.955025	507.824527	1149.700400	93.535631	722.511031	986.763805	-20.781018	485.742929	1193.116114	-517.135563	696.206113	980.114237	-477.680427	-113.561660	1193.560603	-259.637526	62.135979	1253.569451	-430.721341	32.821925	1228.995438	-66.506662	83.690157	1176.554355	-395.494186	74.823823	1176.611101	-116.510643	-96.168001	1245.838413	-216.049321	-84.484266	1248.132603	-294.566118	9.507825	1153.828316	-58.668408	1.937158	1104.643483	-452.080850	146.635973	1084.380728	-37.950440	235.576963	1090.013927	-37.355611	313.745521	1053.492181	-36.500662	242.839445	1122.989892	-53.655895	429.308178	989.860073	-55.478870	437.760159	969.859057	-186.724499	334.901865	856.613324	-40.250431	294.451799	779.942300	-59.708591	220.471963	731.756764	-63.580113	317.019836	762.994215	-85.847814	127.084824	639.714738	-86.743607	52.094067	620.464548	-130.296505	325.390642	472.195436	-119.992036	211.623904	515.834848	-56.603199	243.650922	513.416682	-167.258007	71.523327	958.477353	-473.532501	129.214809	894.233432	-480.821592	162.149791	911.486897	-480.885749	150.365208	808.463472	-467.145989	229.531747	705.230127	-450.549069	241.552488	693.226485	-329.521879	186.888508	538.494019	-469.822941	199.965790	456.024883	-453.772916	167.499338	371.883671	-443.222901	234.774711	454.665592	-435.196717	147.652520	244.982336	-423.238918	87.579394	203.105645	-375.077240	395.160397	180.203202	-362.084331	300.992224	184.433750	-325.276274	277.879111	155.798036	-439.233540	-220.762487	943.543802	-240.602679	-14.473466	80.366498	-437.712517	-14.443650	81.187606	-37.429248	
1001	5.0050	444.614129	1385.056940	-37.661634	461.146884	1432.116186	-359.266683	388.930235	1497.905810	-181.433469	399.795874	1325.676195	-204.390089	506.089375	1149.396326	93.536037	721.702655	986.993633	-21.158976	488.214974	1194.061896	-515.470404	697.462066	980.191785	-477.146266	-113.368001	1194.414869	-261.614529	63.535330	1253.745499	-432.043092	31.625827	1230.503914	-67.715496	84.554074	1176.691122	-396.298401	73.624866	1177.801204	-117.612136	-96.446281	1247.051724	-218.317849	-84.239521	1249.170803	-296.593238	8.988798	1156.802672	-58.934522	2.553563	1104.984134	-453.411661	146.717006	1088.845354	-39.271752	235.605999	1095.222173	-38.899310	313.729222	1058.696138	-40.197265	242.464242	1128.093223	-55.471631	430.572211	997.334722	-57.897267	439.411462	976.801751	-189.045947	338.403167	863.219997	-42.231767	299.367160	785.546243	-61.033290	226.261869	736.128291	-64.436453	322.889583	769.307465	-86.009182	134.956293	640.999336	-86.853751	59.999674	620.298187	-130.122466	335.913632	476.890580	-120.508365	221.573214	518.548933	-56.715754	253.415998	516.873202	-167.440187	71.316361	959.097373	-475.056628	128.766736	894.374900	-482.326980	161.805418	911.416863	-482.120319	149.287473	808.340933	-469.247510	227.780910	704.479537	-452.245253	239.840016	692.681025	-330.938613	182.562905	538.404672	-470.881547	194.505860	455.865837	-454.683156	160.794639	372.241581	-443.674821	229.317656	454.046116	-436.240833	139.342450	245.604157	-423.116807	78.718736	205.182633	-374.834719	385.762424	175.530351	-361.916762	291.638624	181.820478	-325.089998	267.858790	153.709193	-439.068650	-220.776810	943.567008	-240.686843	-14.487443	80.402182	-437.737708	-14.459154	81.246082	-37.444290	
1002	5.0100	442.119161	1385.563089	-35.100023	463.117699	1431.939873	-356.217678	388.711394	1498.134335	-179.655549	399.425319	1325.872745	-201.800886	504.281224	1149.078595	93.927969	720.959090	987.198943	-21.480065	490.649973	1195.083449	-513.918739	698.802696	980.214104	-476.400680	-113.780475	1195.669432	-263.354201	64.771657	1253.635072	-432.956652	30.482342	1231.982101	-68.739289	85.183815	1176.817267	-397.134130	72.464315	1178.907568	-118.619956	-96.832044	1248.351860	-220.161393	-83.825280	1250.145090	-298.426635	8.477591	1159.935062	-59.783310	3.025695	1105.389609	-454.632702	146.665973	1093.051100	-40.604806	235.561872	1099.939520	-40.449856	314.150660	1064.543186	-40.165744	242.184985	1132.738227	-57.577660	431.151423	1004.150407	-60.350529	440.568012	983.376961	-191.911732	341.623773	869.097042	-44.160353	304.116316	790.523808	-62.284637	232.046536	739.660730	-65.149676	328.098823	774.351765	-86.860061	142.665305	641.385955	-86.889929	68.674384	619.322575	-129.494514	346.590404	481.160298	-120.842891	231.548223	520.563009	-56.788785	263.266908	519.549105	-167.525883	71.426037	959.727876	-476.232120	128.679544	894.865648	-483.804409	161.767596	911.783073	-483.336115	148.841823	808.660460	-471.404994	226.756486	704.151041	-454.131596	238.913602	692.559837	-332.532581	178.855854	538.910261	-472.038286	189.477410	456.261955	-455.587202	154.393728	373.189079	-444.085534	224.318827	453.921656	-437.219987	131.100440	247.008069	-422.975034	69.860330	208.081804	-374.632001	376.178162	171.438861	-361.778148	282.277899	179.905232	-325.015179	257.748485	152.339243	-438.815485	-220.819906	943.598643	-240.707787	-14.495649	80.398469	-437.744242	-14.474531	81.257420	-37.431542	
1003	5.0150	439.806985	1385.862918	-32.696844	464.978118	1431.605247	-353.260475	388.578702	1498.173962	-178.024986	399.095458	1325.879967	-199.351478	502.931012	1148.588801	94.373868	720.259479	987.325409	-21.713737	493.144989	1195.982850	-512.486500	700.065089	980.077486	-475.483994	-114.061144	1196.972330	-264.611245	65.684738	1253.705998	-433.875842	29.447228	1233.542794	-69.562216	85.576990	1176.905610	-397.871133	71.343346	1179.928740	-119.532666	-97.410107	1249.808070	-221.544197	-84.346611	1251.150576	-299.689867	8.059926	1162.884239	-60.349752	3.312401	1105.826462	-455.665972	146.567128	1097.088537	-41.747391	235.457923	1104.165234	-42.163519	314.179647	1069.088072	-42.087302	241.873194	1136.926347	-59.664722	432.265691	1010.068309	-62.649989	441.276119	989.259139	-194.696719	344.660890	874.052751	-46.892904	308.764908	794.534438	-63.413225	237.768117	742.153289	-65.733421	333.134683	778.639351	-87.531724	150.515131	640.835359	-86.749351	75.932810	617.215778	-129.406946	357.266396	484.747372	-121.247272	241.629880	521.741146	-56.815352	273.096862	521.578227	-167.602738	71.773825	960.588574	-477.255392	128.947112	895.795214	-485.253634	162.154182	912.409716	-484.084867	149.021247	809.377219	-473.537133	226.525954	704.313180	-456.185065	238.791472	692.824541	-334.302105	175.804107	539.904581	-473.301114	184.991547	457.169774	-456.497199	148.425854	374.832225	-444.601270	219.798575	454.282374	-438.174542	123.009109	248.994329	-422.783102	60.888044	211.875245	-374.542464	366.440988	168.033685	-361.674142	272.845417	178.714406	-324.847514	247.623354	151.688398	-438.571609	-220.859843	943.607231	-240.710024	-14.519550	80.446153	-437.724666	-14.500309	81.261160	-37.439109	
1004	5.0200	437.628654	1386.091615	-30.491781	467.466065	1431.524003	-350.183318	388.504998	1498.138178	-176.437574	399.381830	1325.875729	-197.165198	500.806544	1148.136786	94.702525	719.623310	987.486998	-21.826843	496.028026	1196.908587	-511.370110	701.318656	979.972280	-474.421773	-114.331867	1198.423077	-265.709659	66.593274	1253.838084	-434.778933	28.470513	1235.053264	-70.282727	85.811360	1176.973129	-398.664219	70.263146	1180.863265	-120.348814	-97.149411	1251.053284	-222.887655	-84.070775	1251.952839	-300.934515	7.586089	1165.679541	-60.659604	3.435310	1106.311986	-456.547941	146.386424	1100.584750	-42.714086	235.251549	1107.782130	-43.868321	314.055755	1072.834056	-43.924686	241.471331	1140.458830	-61.595759	432.401016	1015.345733	-65.110018	441.618796	994.440491	-197.390693	347.272432	878.102846	-48.920798	313.100036	797.543321	-64.453181	243.369430	743.539964	-66.128613	338.019463	781.723307	-88.073035	158.187891	639.342234	-86.611950	83.886341	613.913134	-129.146085	367.905451	487.697742	-121.509319	251.599653	522.173611	-56.850386	282.924187	522.823051	-167.702498	72.312173	961.578035	-478.250297	129.668365	896.998795	-486.551342	162.784972	913.684996	-485.065221	149.892742	810.501736	-475.601510	227.173218	704.966605	-458.221092	238.725851	693.669809	-336.508349	173.495926	541.509694	-474.562141	181.070339	458.676196	-457.457860	142.974755	377.089440	-445.133509	215.814601	455.245963	-439.102277	115.168660	251.869250	-422.654837	52.529736	216.422769	-374.173279	356.776453	165.191051	-361.430366	263.332292	178.023804	-324.577332	237.514227	151.796131	-438.354544	-220.887837	943.611254	-240.695097	-14.539245	80.441513	-437.722842	-14.501748	81.269692	-37.423180	
1005	5.0250	435.674207	1386.224938	-28.447254	469.222907	1430.938222	-347.295620	388.464530	1497.935670	-174.924983	399.222220	1325.657553	-194.894461	499.319778	1147.621703	94.631440	719.065196	987.568114	-21.858042	498.494393	1197.652501	-510.152202	702.515285	979.893214	-473.186067	-114.912060	1199.979699	-266.319871	67.241618	1254.024835	-435.529127	27.480178	1236.537228	-70.927381	85.855847	1176.978682	-399.389053	69.224889	1181.709569	-121.066971	-97.747284	1252.760667	-223.466188	-83.321184	1252.615495	-302.345335	7.167310	1168.155423	-60.777646	3.319540	1106.757021	-457.237918	146.069108	1103.510956	-43.423477	235.043925	1110.613449	-45.268378	313.675877	1075.590912	-45.683295	241.088309	1143.144840	-63.360037	432.315972	1019.649630	-67.579843	441.566981	998.784817	-200.044577	349.495610	880.799285	-50.857628	317.419317	799.316591	-65.043472	248.579129	743.794337	-66.466390	342.552653	783.655602	-88.457024	165.609551	636.823281	-86.390095	91.598542	609.936869	-128.554828	378.664790	490.244989	-121.944936	261.588251	521.856934	-56.736843	292.579671	523.362687	-167.637074	73.060029	962.717221	-479.034090	130.757836	898.550738	-487.657656	163.765391	915.352549	-485.928724	151.367750	812.044119	-477.499709	228.621505	706.186590	-460.369946	239.852312	694.977979	-338.409343	171.852295	543.662382	-475.944169	177.772976	460.784640	-458.406667	137.998376	380.068409	-445.710640	212.364209	456.802073	-440.007739	107.586938	255.638472	-422.345615	44.299937	222.108446	-373.950128	347.050191	162.763193	-361.227961	254.029257	177.974994	-324.370506	227.447472	152.673543	-438.130464	-220.948580	943.607701	-240.681181	-14.547705	80.450884	-437.710947	-14.501947	81.272338	-37.413660	
